# Blender v2.79 (sub 0) OBJ File: 'grass_tile.blend'
# www.blender.org
mtllib grass_tile.mtl
o tile_Cube.073
v -1.000000 -2.000000 1.000000
v -1.000000 0.000000 1.000000
v -1.000000 -2.000000 -1.000000
v -1.000000 0.000000 -1.000000
v 1.000000 -2.000000 1.000000
v 1.000000 0.000000 1.000000
v 1.000000 -2.000000 -1.000000
v 1.000000 0.000000 -1.000000
v -1.000000 -0.500000 1.000000
v -1.000000 -0.500000 -1.000000
v 1.000000 -0.500000 -1.000000
v 1.000000 -0.500000 1.000000
vn 0.0000 -1.0000 0.0000
vn 0.0000 0.0000 1.0000
vn 1.0000 0.0000 0.0000
vn 0.0000 0.0000 -1.0000
vn -1.0000 0.0000 0.0000
vn 0.0000 1.0000 0.0000
usemtl dirt
s off
f 3//1 7//1 5//1 1//1
f 5//2 12//2 9//2 1//2
f 7//3 11//3 12//3 5//3
f 3//4 10//4 11//4 7//4
f 1//5 9//5 10//5 3//5
usemtl grasstile
f 9//5 2//5 4//5 10//5
f 10//4 4//4 8//4 11//4
f 11//3 8//3 6//3 12//3
f 12//2 6//2 2//2 9//2
f 8//6 4//6 2//6 6//6
o grass_Cube.035
v -0.043856 0.292471 -0.198275
v -0.036385 0.292471 -0.171008
v 0.020881 0.295097 -0.186699
v 0.013409 0.295097 -0.213966
v -0.105641 0.160452 -0.181345
v -0.098170 0.160452 -0.154078
v -0.013183 0.154180 -0.177365
v -0.020655 0.154180 -0.204632
v -0.021640 0.454808 -0.204362
v -0.014169 0.454808 -0.177095
v 0.016451 0.452750 -0.185485
v 0.008979 0.452750 -0.212752
v 0.152539 0.000000 -0.128578
v 0.145372 0.000000 -0.101229
v 0.008190 0.000000 -0.137180
v 0.015357 0.000000 -0.164528
v 0.139309 0.459714 -0.147744
v 0.132142 0.459714 -0.120395
v 0.103589 0.447844 -0.127878
v 0.110756 0.447844 -0.155227
v 0.161779 0.212756 -0.126156
v 0.154612 0.212756 -0.098808
v 0.069371 0.219028 -0.121146
v 0.076538 0.219028 -0.148495
v 0.117077 0.333883 -0.137871
v 0.109910 0.333883 -0.110522
v 0.052473 0.331257 -0.125575
v 0.059640 0.331257 -0.152923
v -0.120071 0.000000 -0.177391
v -0.112600 0.000000 -0.150124
v 0.024173 0.000000 -0.187601
v 0.016701 0.000000 -0.214868
v -0.157210 0.292471 -0.092174
v -0.136328 0.292471 -0.073114
v -0.096300 0.295097 -0.116969
v -0.117181 0.295097 -0.136029
v -0.164520 0.192907 -0.050248
v -0.143638 0.192907 -0.031188
v -0.084232 0.186634 -0.096272
v -0.105114 0.186634 -0.115332
v -0.093439 0.439119 -0.119090
v -0.072558 0.439119 -0.100031
v -0.052827 0.426645 -0.121647
v -0.073708 0.426645 -0.140707
v -0.200796 0.000000 -0.010505
v -0.179914 0.000000 0.008555
v -0.095967 0.000000 -0.083416
v -0.116849 0.000000 -0.102476
v 0.005583 0.252576 0.111551
v 0.013055 0.252576 0.138817
v 0.070320 0.255202 0.123126
v 0.062849 0.255202 0.095859
v -0.023222 0.160452 0.119443
v -0.015750 0.160452 0.146710
v 0.069236 0.154180 0.123423
v 0.061765 0.154180 0.096156
v -0.015257 0.427262 0.117261
v -0.007786 0.427262 0.144528
v 0.022833 0.425204 0.136138
v 0.015362 0.425204 0.108871
v -0.037652 0.000000 0.123397
v -0.030180 0.000000 0.150664
v 0.106592 0.000000 0.113187
v 0.099121 0.000000 0.085920
v 0.270223 0.000000 -0.025945
v 0.259865 0.000000 -0.052251
v 0.137990 0.000000 -0.003052
v 0.148349 0.000000 0.023254
v 0.240069 0.450241 -0.012784
v 0.230154 0.451850 -0.039212
v 0.200921 0.457317 -0.027912
v 0.210835 0.455708 -0.001485
v 0.241551 0.128217 -0.019153
v 0.231193 0.128217 -0.045459
v 0.149201 0.134489 -0.013172
v 0.159560 0.134489 0.013134
v 0.213211 0.275941 -0.006238
v 0.202852 0.275941 -0.032543
v 0.147605 0.273315 -0.010788
v 0.157964 0.273315 0.015518
v -0.182797 0.292471 0.119826
v -0.196342 0.292471 0.095010
v -0.144224 0.295097 0.066564
v -0.130679 0.295097 0.091380
v -0.189003 0.192907 0.123213
v -0.202548 0.192907 0.098397
v -0.125200 0.186634 0.056180
v -0.111655 0.186634 0.080996
v -0.138921 0.454053 0.088226
v -0.151714 0.450965 0.063204
v -0.123605 0.453505 0.048520
v -0.110812 0.456593 0.073542
v -0.222494 0.000000 0.145228
v -0.236038 0.000000 0.120412
v -0.140479 0.000000 0.064520
v -0.126934 0.000000 0.089336
v 0.049444 0.292471 -0.035753
v 0.049108 0.292471 -0.007483
v 0.108481 0.295097 -0.006777
v 0.108816 0.295097 -0.035047
v -0.014613 0.160452 -0.036514
v -0.014949 0.160452 -0.008244
v 0.073164 0.154180 -0.007197
v 0.073500 0.154180 -0.035467
v 0.072478 0.454808 -0.035479
v 0.072142 0.454808 -0.007209
v 0.103888 0.452750 -0.006832
v 0.104224 0.452750 -0.035102
v -0.029574 0.000000 -0.036691
v -0.029910 0.000000 -0.008421
v 0.111894 0.000000 -0.006737
v 0.112230 0.000000 -0.035007
vn -0.2643 0.0000 -0.9644
vn -0.8677 0.4366 0.2378
vn 0.2643 0.0000 0.9644
vn 0.9640 0.0291 -0.2642
vn 0.0624 0.9979 -0.0171
vn 0.0000 -1.0000 0.0000
vn -0.9603 0.0928 0.2631
vn -0.9549 0.1405 0.2616
vn 0.9354 0.2436 -0.2563
vn -0.3609 0.9278 -0.0946
vn 0.9565 -0.1493 0.2507
vn -0.2718 0.1301 0.9535
vn -0.8921 0.3865 -0.2338
vn 0.2535 0.0000 -0.9673
vn -0.9294 0.2774 -0.2436
vn -0.2535 -0.0000 0.9673
vn 0.9664 -0.0449 0.2532
vn 0.2718 -0.1301 -0.9535
vn -0.9558 -0.1538 -0.2505
vn 0.9038 0.3565 0.2369
vn 0.9355 -0.2431 -0.2563
vn -0.7093 0.1965 -0.6770
vn -0.6342 0.3391 0.6948
vn 0.7251 0.2137 0.6547
vn 0.7386 -0.0000 0.6742
vn 0.6542 -0.2417 -0.7167
vn 0.7093 -0.1965 0.6770
vn 0.2643 0.9199 -0.2896
vn -0.6494 0.2687 0.7114
vn -0.6196 0.3940 0.6788
vn -0.7386 0.0000 -0.6742
vn -0.7251 -0.2137 -0.6547
vn 0.6712 -0.0929 -0.7354
vn 0.6727 -0.0658 -0.7370
vn -0.9174 0.3084 0.2514
vn 0.9264 0.2782 -0.2538
vn -0.9572 -0.1228 0.2623
vn 0.9644 -0.0111 -0.2643
vn 0.0000 1.0000 0.0000
vn -0.1808 -0.9835 0.0080
vn -0.9204 0.1559 0.3586
vn 0.3637 -0.0199 0.9313
vn 0.8901 -0.2907 -0.3511
vn -0.3719 -0.0365 -0.9276
vn -0.3661 0.0114 -0.9305
vn 0.9254 -0.1046 -0.3644
vn 0.3719 0.0365 0.9276
vn -0.9073 -0.2218 0.3573
vn -0.3637 0.0198 -0.9313
vn 0.9303 0.0170 -0.3663
vn 0.3661 -0.0114 0.9305
vn -0.9105 -0.2060 0.3585
vn -0.4710 -0.0419 -0.8811
vn 0.8756 -0.0708 -0.4779
vn 0.4791 -0.0000 0.8778
vn 0.4937 0.0061 0.8696
vn -0.8766 0.1618 0.4532
vn 0.4710 0.0416 0.8811
vn 0.1211 -0.9908 0.0604
vn 0.8595 -0.2028 -0.4691
vn 0.8461 -0.3186 -0.4274
vn -0.4937 -0.0061 -0.8696
vn -0.4791 0.0000 -0.8778
vn -0.8740 0.0929 0.4770
vn -0.8607 -0.1959 0.4698
vn 0.0119 0.0000 -0.9999
vn -0.8996 0.4366 -0.0107
vn -0.0119 0.0000 0.9999
vn 0.9995 0.0291 0.0119
vn 0.0647 0.9979 0.0008
vn -0.9956 0.0928 -0.0118
vn -0.9900 0.1405 -0.0118
vn 0.9698 0.2436 0.0115
vn 0.9699 -0.2431 0.0115
usemtl Grass
s off
f 24//7 16//7 13//7 21//7
f 18//8 14//8 13//8 17//8
f 19//9 15//9 14//9 18//9
f 43//9 19//9 18//9 42//9
f 16//10 24//10 23//10 15//10
f 15//9 23//9 22//9 14//9
f 24//11 21//11 22//11 23//11
f 44//12 43//12 42//12 41//12
f 42//13 18//13 17//13 41//13
f 14//14 22//14 21//14 13//14
f 20//7 44//7 41//7 17//7
f 16//7 20//7 17//7 13//7
f 44//15 20//15 19//15 43//15
f 25//12 26//12 27//12 28//12
f 29//16 32//16 31//16 30//16
f 37//17 29//17 30//17 38//17
f 38//18 30//18 31//18 39//18
f 39//19 31//19 32//19 40//19
f 33//20 25//20 28//20 36//20
f 37//20 33//20 36//20 40//20
f 27//21 35//21 36//21 28//21
f 26//22 34//22 35//22 27//22
f 25//23 33//23 34//23 26//23
f 29//24 37//24 40//24 32//24
f 35//25 39//25 40//25 36//25
f 34//22 38//22 39//22 35//22
f 33//26 37//26 38//26 34//26
f 20//27 16//27 15//27 19//27
f 56//28 48//28 45//28 53//28
f 50//29 46//29 45//29 49//29
f 51//30 47//30 46//30 50//30
f 59//31 51//31 50//31 58//31
f 48//32 56//32 55//32 47//32
f 47//33 55//33 54//33 46//33
f 56//34 53//34 54//34 55//34
f 60//12 59//12 58//12 57//12
f 58//35 50//35 49//35 57//35
f 46//36 54//36 53//36 45//36
f 52//37 60//37 57//37 49//37
f 48//38 52//38 49//38 45//38
f 60//39 52//39 51//39 59//39
f 52//40 48//40 47//40 51//40
f 72//7 64//7 61//7 69//7
f 66//41 62//41 61//41 65//41
f 67//9 63//9 62//9 66//9
f 75//9 67//9 66//9 74//9
f 64//42 72//42 71//42 63//42
f 63//9 71//9 70//9 62//9
f 72//11 69//11 70//11 71//11
f 76//12 75//12 74//12 73//12
f 74//13 66//13 65//13 73//13
f 62//43 70//43 69//43 61//43
f 68//7 76//7 73//7 65//7
f 64//7 68//7 65//7 61//7
f 76//15 68//15 67//15 75//15
f 68//44 64//44 63//44 67//44
f 77//45 78//45 79//45 80//45
f 81//46 84//46 83//46 82//46
f 89//47 81//47 82//47 90//47
f 90//48 82//48 83//48 91//48
f 91//49 83//49 84//49 92//49
f 85//50 77//50 80//50 88//50
f 89//51 85//51 88//51 92//51
f 79//52 87//52 88//52 80//52
f 78//53 86//53 87//53 79//53
f 77//54 85//54 86//54 78//54
f 81//55 89//55 92//55 84//55
f 87//56 91//56 92//56 88//56
f 86//57 90//57 91//57 87//57
f 85//58 89//58 90//58 86//58
f 104//59 96//59 93//59 101//59
f 98//60 94//60 93//60 97//60
f 99//61 95//61 94//61 98//61
f 107//62 99//62 98//62 106//62
f 96//63 104//63 103//63 95//63
f 95//64 103//64 102//64 94//64
f 104//65 101//65 102//65 103//65
f 108//45 107//45 106//45 105//45
f 106//66 98//66 97//66 105//66
f 94//67 102//67 101//67 93//67
f 100//68 108//68 105//68 97//68
f 96//69 100//69 97//69 93//69
f 108//70 100//70 99//70 107//70
f 100//71 96//71 95//71 99//71
f 120//72 112//72 109//72 117//72
f 114//73 110//73 109//73 113//73
f 115//74 111//74 110//74 114//74
f 123//74 115//74 114//74 122//74
f 112//75 120//75 119//75 111//75
f 111//74 119//74 118//74 110//74
f 120//76 117//76 118//76 119//76
f 124//12 123//12 122//12 121//12
f 122//77 114//77 113//77 121//77
f 110//78 118//78 117//78 109//78
f 116//72 124//72 121//72 113//72
f 112//72 116//72 113//72 109//72
f 124//79 116//79 115//79 123//79
f 116//80 112//80 111//80 115//80
